<mxfile host="app.diagrams.net" modified="2022-01-18T06:53:33.295Z" agent="5.0 (Macintosh; Intel Mac OS X 10_15_7) AppleWebKit/537.36 (KHTML, like Gecko) Chrome/97.0.4692.71 Safari/537.36" etag="jwe88jxyMIihbc2l_Nod" version="15.9.4" type="github">
  <diagram id="C5RBs43oDa-KdzZeNtuy" name="Page-1">
    <mxGraphModel dx="3711" dy="2491" grid="1" gridSize="10" guides="1" tooltips="1" connect="1" arrows="1" fold="1" page="1" pageScale="1" pageWidth="827" pageHeight="1169" math="0" shadow="0">
      <root>
        <mxCell id="WIyWlLk6GJQsqaUBKTNV-0" />
        <mxCell id="WIyWlLk6GJQsqaUBKTNV-1" parent="WIyWlLk6GJQsqaUBKTNV-0" />
        <mxCell id="AwlXn9MPb9oFoK68vWlI-148" value="" style="rounded=0;whiteSpace=wrap;html=1;labelBackgroundColor=none;fontSize=12;fillColor=#dae8fc;strokeColor=#6c8ebf;" vertex="1" parent="WIyWlLk6GJQsqaUBKTNV-1">
          <mxGeometry x="-520" y="-260" width="470" height="300" as="geometry" />
        </mxCell>
        <mxCell id="AwlXn9MPb9oFoK68vWlI-0" value="&lt;b&gt;tuyasecurity-armed-api&lt;/b&gt;" style="text;html=1;strokeColor=none;fillColor=none;align=center;verticalAlign=middle;whiteSpace=wrap;rounded=0;" vertex="1" parent="WIyWlLk6GJQsqaUBKTNV-1">
          <mxGeometry x="-500" y="-239" width="140" height="20" as="geometry" />
        </mxCell>
        <mxCell id="AwlXn9MPb9oFoK68vWlI-1" value="tuyasecurity-armed-ui" style="text;html=1;strokeColor=none;fillColor=none;align=center;verticalAlign=middle;whiteSpace=wrap;rounded=0;" vertex="1" parent="WIyWlLk6GJQsqaUBKTNV-1">
          <mxGeometry x="90" y="-530" width="130" height="20" as="geometry" />
        </mxCell>
        <mxCell id="AwlXn9MPb9oFoK68vWlI-7" value="MicroService" style="html=1;" vertex="1" parent="WIyWlLk6GJQsqaUBKTNV-1">
          <mxGeometry x="-350" y="-340" width="110" height="50" as="geometry" />
        </mxCell>
        <mxCell id="AwlXn9MPb9oFoK68vWlI-21" value="MicroServiceAbsSecurityDataService" style="swimlane;fontStyle=1;align=center;verticalAlign=top;childLayout=stackLayout;horizontal=1;startSize=26;horizontalStack=0;resizeParent=1;resizeParentMax=0;resizeLast=0;collapsible=1;marginBottom=0;" vertex="1" collapsed="1" parent="WIyWlLk6GJQsqaUBKTNV-1">
          <mxGeometry x="-420" y="-160" width="250" height="26" as="geometry">
            <mxRectangle x="-420" y="-140" width="310" height="66" as="alternateBounds" />
          </mxGeometry>
        </mxCell>
        <mxCell id="AwlXn9MPb9oFoK68vWlI-24" value="+getArmedDataCallback:ISecurityArmedDataCallback" style="text;strokeColor=none;fillColor=none;align=left;verticalAlign=top;spacingLeft=4;spacingRight=4;overflow=hidden;rotatable=0;points=[[0,0.5],[1,0.5]];portConstraint=eastwest;" vertex="1" parent="AwlXn9MPb9oFoK68vWlI-21">
          <mxGeometry y="26" width="250" height="20" as="geometry" />
        </mxCell>
        <mxCell id="AwlXn9MPb9oFoK68vWlI-29" value="+setArmedDataCallback(setArmedDataCallback)" style="text;strokeColor=none;fillColor=none;align=left;verticalAlign=top;spacingLeft=4;spacingRight=4;overflow=hidden;rotatable=0;points=[[0,0.5],[1,0.5]];portConstraint=eastwest;" vertex="1" parent="AwlXn9MPb9oFoK68vWlI-21">
          <mxGeometry y="46" width="250" height="20" as="geometry" />
        </mxCell>
        <mxCell id="AwlXn9MPb9oFoK68vWlI-32" value="&lt;&lt;Interface&gt;&gt;&#xa;ISecurityArmedDataCallback" style="swimlane;fontStyle=3;align=center;verticalAlign=top;childLayout=stackLayout;horizontal=1;startSize=40;horizontalStack=0;resizeParent=1;resizeParentMax=0;resizeLast=0;collapsible=1;marginBottom=0;" vertex="1" parent="WIyWlLk6GJQsqaUBKTNV-1">
          <mxGeometry x="-895" y="-219" width="300" height="144" as="geometry">
            <mxRectangle x="-860" y="-150" width="210" height="30" as="alternateBounds" />
          </mxGeometry>
        </mxCell>
        <mxCell id="AwlXn9MPb9oFoK68vWlI-33" value="+currentHomeId:long" style="text;strokeColor=none;fillColor=none;align=left;verticalAlign=top;spacingLeft=4;spacingRight=4;overflow=hidden;rotatable=0;points=[[0,0.5],[1,0.5]];portConstraint=eastwest;" vertex="1" parent="AwlXn9MPb9oFoK68vWlI-32">
          <mxGeometry y="40" width="300" height="34" as="geometry" />
        </mxCell>
        <mxCell id="AwlXn9MPb9oFoK68vWlI-34" value="+bizTag:int" style="text;strokeColor=none;fillColor=none;align=left;verticalAlign=top;spacingLeft=4;spacingRight=4;overflow=hidden;rotatable=0;points=[[0,0.5],[1,0.5]];portConstraint=eastwest;fontColor=default;" vertex="1" parent="AwlXn9MPb9oFoK68vWlI-32">
          <mxGeometry y="74" width="300" height="34" as="geometry" />
        </mxCell>
        <mxCell id="AwlXn9MPb9oFoK68vWlI-36" value="+getDeviceIdList:List&lt;String&gt;" style="text;strokeColor=none;fillColor=none;align=left;verticalAlign=top;spacingLeft=4;spacingRight=4;overflow=hidden;rotatable=0;points=[[0,0.5],[1,0.5]];portConstraint=eastwest;fontColor=default;" vertex="1" parent="AwlXn9MPb9oFoK68vWlI-32">
          <mxGeometry y="108" width="300" height="36" as="geometry" />
        </mxCell>
        <mxCell id="AwlXn9MPb9oFoK68vWlI-40" value="业务方" style="shape=umlActor;verticalLabelPosition=bottom;verticalAlign=top;html=1;labelBackgroundColor=none;fontColor=default;" vertex="1" parent="WIyWlLk6GJQsqaUBKTNV-1">
          <mxGeometry x="-1110" y="-170" width="50" height="60" as="geometry" />
        </mxCell>
        <mxCell id="AwlXn9MPb9oFoK68vWlI-42" value="" style="endArrow=block;dashed=1;endFill=0;endSize=12;html=1;rounded=0;fontColor=default;exitX=0.5;exitY=0.5;exitDx=0;exitDy=0;entryX=0;entryY=0.5;entryDx=0;entryDy=0;exitPerimeter=0;" edge="1" parent="WIyWlLk6GJQsqaUBKTNV-1" source="AwlXn9MPb9oFoK68vWlI-40" target="AwlXn9MPb9oFoK68vWlI-32">
          <mxGeometry width="160" relative="1" as="geometry">
            <mxPoint x="-920" y="-120" as="sourcePoint" />
            <mxPoint x="-820" y="30" as="targetPoint" />
          </mxGeometry>
        </mxCell>
        <mxCell id="AwlXn9MPb9oFoK68vWlI-45" value="AbsSecurityDataServiceImpl" style="swimlane;fontStyle=1;align=center;verticalAlign=top;childLayout=stackLayout;horizontal=1;startSize=26;horizontalStack=0;resizeParent=1;resizeParentMax=0;resizeLast=0;collapsible=1;marginBottom=0;labelBackgroundColor=none;fontColor=default;" vertex="1" collapsed="1" parent="WIyWlLk6GJQsqaUBKTNV-1">
          <mxGeometry x="-395" y="-20" width="200" height="26" as="geometry">
            <mxRectangle x="-450" y="-20" width="310" height="126" as="alternateBounds" />
          </mxGeometry>
        </mxCell>
        <mxCell id="AwlXn9MPb9oFoK68vWlI-46" value="+ securityCallback: ISecurityArmedDataCallback" style="text;strokeColor=none;fillColor=none;align=left;verticalAlign=top;spacingLeft=4;spacingRight=4;overflow=hidden;rotatable=0;points=[[0,0.5],[1,0.5]];portConstraint=eastwest;labelBackgroundColor=none;fontColor=default;" vertex="1" parent="AwlXn9MPb9oFoK68vWlI-45">
          <mxGeometry y="26" width="200" height="20" as="geometry" />
        </mxCell>
        <mxCell id="AwlXn9MPb9oFoK68vWlI-47" value="" style="line;strokeWidth=1;fillColor=none;align=left;verticalAlign=middle;spacingTop=-1;spacingLeft=3;spacingRight=3;rotatable=0;labelPosition=right;points=[];portConstraint=eastwest;labelBackgroundColor=none;fontColor=default;" vertex="1" parent="AwlXn9MPb9oFoK68vWlI-45">
          <mxGeometry y="46" width="200" height="40" as="geometry" />
        </mxCell>
        <mxCell id="AwlXn9MPb9oFoK68vWlI-48" value="+getArmedDataCallback:ISecurityArmedDataCallback" style="text;strokeColor=none;fillColor=none;align=left;verticalAlign=top;spacingLeft=4;spacingRight=4;overflow=hidden;rotatable=0;points=[[0,0.5],[1,0.5]];portConstraint=eastwest;labelBackgroundColor=none;fontColor=default;" vertex="1" parent="AwlXn9MPb9oFoK68vWlI-45">
          <mxGeometry y="86" width="200" height="20" as="geometry" />
        </mxCell>
        <mxCell id="AwlXn9MPb9oFoK68vWlI-56" value="+setArmedDataCallback(setArmedDataCallback)" style="text;strokeColor=none;fillColor=none;align=left;verticalAlign=top;spacingLeft=4;spacingRight=4;overflow=hidden;rotatable=0;points=[[0,0.5],[1,0.5]];portConstraint=eastwest;labelBackgroundColor=none;fontColor=default;" vertex="1" parent="AwlXn9MPb9oFoK68vWlI-45">
          <mxGeometry y="106" width="200" height="20" as="geometry" />
        </mxCell>
        <mxCell id="AwlXn9MPb9oFoK68vWlI-37" value="Use" style="endArrow=open;endSize=12;dashed=1;html=1;rounded=0;fontColor=default;entryX=1;entryY=0.5;entryDx=0;entryDy=0;exitX=0;exitY=0.5;exitDx=0;exitDy=0;" edge="1" parent="WIyWlLk6GJQsqaUBKTNV-1" source="AwlXn9MPb9oFoK68vWlI-21" target="AwlXn9MPb9oFoK68vWlI-32">
          <mxGeometry width="160" relative="1" as="geometry">
            <mxPoint x="-610" y="-10" as="sourcePoint" />
            <mxPoint x="-700" y="-85" as="targetPoint" />
          </mxGeometry>
        </mxCell>
        <mxCell id="AwlXn9MPb9oFoK68vWlI-50" value="Extends" style="endArrow=block;endSize=16;endFill=0;html=1;rounded=0;fontColor=default;exitX=0.5;exitY=0;exitDx=0;exitDy=0;entryX=0.5;entryY=1;entryDx=0;entryDy=0;" edge="1" parent="WIyWlLk6GJQsqaUBKTNV-1" source="AwlXn9MPb9oFoK68vWlI-45" target="AwlXn9MPb9oFoK68vWlI-21">
          <mxGeometry width="160" relative="1" as="geometry">
            <mxPoint x="-550" y="130" as="sourcePoint" />
            <mxPoint x="-390" y="130" as="targetPoint" />
          </mxGeometry>
        </mxCell>
        <mxCell id="AwlXn9MPb9oFoK68vWlI-57" value="Extends" style="endArrow=block;endSize=16;endFill=0;html=1;rounded=0;fontColor=default;exitX=0.5;exitY=0;exitDx=0;exitDy=0;entryX=0.5;entryY=1;entryDx=0;entryDy=0;" edge="1" parent="WIyWlLk6GJQsqaUBKTNV-1" source="AwlXn9MPb9oFoK68vWlI-21" target="AwlXn9MPb9oFoK68vWlI-7">
          <mxGeometry width="160" relative="1" as="geometry">
            <mxPoint x="-110" y="-90" as="sourcePoint" />
            <mxPoint x="50" y="-90" as="targetPoint" />
          </mxGeometry>
        </mxCell>
        <mxCell id="AwlXn9MPb9oFoK68vWlI-82" value="«interface»&#xa;IArmedView" style="swimlane;fontStyle=1;align=center;verticalAlign=top;childLayout=stackLayout;horizontal=1;startSize=40;horizontalStack=0;resizeParent=1;resizeParentMax=0;resizeLast=0;collapsible=1;marginBottom=0;labelBackgroundColor=none;fontSize=12;fontColor=default;" vertex="1" collapsed="1" parent="WIyWlLk6GJQsqaUBKTNV-1">
          <mxGeometry x="300" y="160" width="100" height="40" as="geometry">
            <mxRectangle x="313.5" y="-317" width="330" height="300" as="alternateBounds" />
          </mxGeometry>
        </mxCell>
        <mxCell id="AwlXn9MPb9oFoK68vWlI-85" value="+ onEmpty" style="text;strokeColor=none;fillColor=none;align=left;verticalAlign=top;spacingLeft=4;spacingRight=4;overflow=hidden;rotatable=0;points=[[0,0.5],[1,0.5]];portConstraint=eastwest;labelBackgroundColor=none;fontSize=12;fontColor=default;" vertex="1" parent="AwlXn9MPb9oFoK68vWlI-82">
          <mxGeometry y="40" width="100" height="26" as="geometry" />
        </mxCell>
        <mxCell id="AwlXn9MPb9oFoK68vWlI-86" value="+ setAlarmSate(mode:ModeType,count:int,maxTime:int )" style="text;strokeColor=none;fillColor=none;align=left;verticalAlign=top;spacingLeft=4;spacingRight=4;overflow=hidden;rotatable=0;points=[[0,0.5],[1,0.5]];portConstraint=eastwest;labelBackgroundColor=none;fontSize=12;fontColor=default;" vertex="1" parent="AwlXn9MPb9oFoK68vWlI-82">
          <mxGeometry y="66" width="100" height="26" as="geometry" />
        </mxCell>
        <mxCell id="AwlXn9MPb9oFoK68vWlI-87" value="+ setArmedState(mode:ModeType,count:int,maxTime:int)" style="text;strokeColor=none;fillColor=none;align=left;verticalAlign=top;spacingLeft=4;spacingRight=4;overflow=hidden;rotatable=0;points=[[0,0.5],[1,0.5]];portConstraint=eastwest;labelBackgroundColor=none;fontSize=12;fontColor=default;" vertex="1" parent="AwlXn9MPb9oFoK68vWlI-82">
          <mxGeometry y="92" width="100" height="26" as="geometry" />
        </mxCell>
        <mxCell id="AwlXn9MPb9oFoK68vWlI-88" value="+ onOnline" style="text;strokeColor=none;fillColor=none;align=left;verticalAlign=top;spacingLeft=4;spacingRight=4;overflow=hidden;rotatable=0;points=[[0,0.5],[1,0.5]];portConstraint=eastwest;labelBackgroundColor=none;fontSize=12;fontColor=default;" vertex="1" parent="AwlXn9MPb9oFoK68vWlI-82">
          <mxGeometry y="118" width="100" height="26" as="geometry" />
        </mxCell>
        <mxCell id="AwlXn9MPb9oFoK68vWlI-89" value="+ onOffline" style="text;strokeColor=none;fillColor=none;align=left;verticalAlign=top;spacingLeft=4;spacingRight=4;overflow=hidden;rotatable=0;points=[[0,0.5],[1,0.5]];portConstraint=eastwest;labelBackgroundColor=none;fontSize=12;fontColor=default;" vertex="1" parent="AwlXn9MPb9oFoK68vWlI-82">
          <mxGeometry y="144" width="100" height="26" as="geometry" />
        </mxCell>
        <mxCell id="AwlXn9MPb9oFoK68vWlI-90" value="+ onInit" style="text;strokeColor=none;fillColor=none;align=left;verticalAlign=top;spacingLeft=4;spacingRight=4;overflow=hidden;rotatable=0;points=[[0,0.5],[1,0.5]];portConstraint=eastwest;labelBackgroundColor=none;fontSize=12;fontColor=default;" vertex="1" parent="AwlXn9MPb9oFoK68vWlI-82">
          <mxGeometry y="170" width="100" height="26" as="geometry" />
        </mxCell>
        <mxCell id="AwlXn9MPb9oFoK68vWlI-91" value="+ setArmedListener(listener:ArmedListener)" style="text;strokeColor=none;fillColor=none;align=left;verticalAlign=top;spacingLeft=4;spacingRight=4;overflow=hidden;rotatable=0;points=[[0,0.5],[1,0.5]];portConstraint=eastwest;labelBackgroundColor=none;fontSize=12;fontColor=default;" vertex="1" parent="AwlXn9MPb9oFoK68vWlI-82">
          <mxGeometry y="196" width="100" height="26" as="geometry" />
        </mxCell>
        <mxCell id="AwlXn9MPb9oFoK68vWlI-92" value="+ showIgnorePage(homeId:long,device:list&lt;String&gt;)" style="text;strokeColor=none;fillColor=none;align=left;verticalAlign=top;spacingLeft=4;spacingRight=4;overflow=hidden;rotatable=0;points=[[0,0.5],[1,0.5]];portConstraint=eastwest;labelBackgroundColor=none;fontSize=12;fontColor=default;" vertex="1" parent="AwlXn9MPb9oFoK68vWlI-82">
          <mxGeometry y="222" width="100" height="26" as="geometry" />
        </mxCell>
        <mxCell id="AwlXn9MPb9oFoK68vWlI-93" value="+ setArmDeviceState(stayingNum:int,leavingNum:int)" style="text;strokeColor=none;fillColor=none;align=left;verticalAlign=top;spacingLeft=4;spacingRight=4;overflow=hidden;rotatable=0;points=[[0,0.5],[1,0.5]];portConstraint=eastwest;labelBackgroundColor=none;fontSize=12;fontColor=default;" vertex="1" parent="AwlXn9MPb9oFoK68vWlI-82">
          <mxGeometry y="248" width="100" height="26" as="geometry" />
        </mxCell>
        <mxCell id="AwlXn9MPb9oFoK68vWlI-94" value="+ setAbnormalDevice(num:int)" style="text;strokeColor=none;fillColor=none;align=left;verticalAlign=top;spacingLeft=4;spacingRight=4;overflow=hidden;rotatable=0;points=[[0,0.5],[1,0.5]];portConstraint=eastwest;labelBackgroundColor=none;fontSize=12;fontColor=default;" vertex="1" parent="AwlXn9MPb9oFoK68vWlI-82">
          <mxGeometry y="274" width="100" height="26" as="geometry" />
        </mxCell>
        <mxCell id="AwlXn9MPb9oFoK68vWlI-95" value="SecurityArmedManager" style="swimlane;fontStyle=1;align=center;verticalAlign=top;childLayout=stackLayout;horizontal=1;startSize=26;horizontalStack=0;resizeParent=1;resizeParentMax=0;resizeLast=0;collapsible=1;marginBottom=0;labelBackgroundColor=none;fontSize=12;fontColor=default;" vertex="1" collapsed="1" parent="WIyWlLk6GJQsqaUBKTNV-1">
          <mxGeometry x="60" y="-160" width="170" height="26" as="geometry">
            <mxRectangle x="30" y="-177" width="210" height="60" as="alternateBounds" />
          </mxGeometry>
        </mxCell>
        <mxCell id="AwlXn9MPb9oFoK68vWlI-97" value="" style="line;strokeWidth=1;fillColor=none;align=left;verticalAlign=middle;spacingTop=-1;spacingLeft=3;spacingRight=3;rotatable=0;labelPosition=right;points=[];portConstraint=eastwest;labelBackgroundColor=none;fontSize=12;fontColor=default;" vertex="1" parent="AwlXn9MPb9oFoK68vWlI-95">
          <mxGeometry y="26" width="170" height="8" as="geometry" />
        </mxCell>
        <mxCell id="AwlXn9MPb9oFoK68vWlI-98" value="+ method(type): type" style="text;strokeColor=none;fillColor=none;align=left;verticalAlign=top;spacingLeft=4;spacingRight=4;overflow=hidden;rotatable=0;points=[[0,0.5],[1,0.5]];portConstraint=eastwest;labelBackgroundColor=none;fontSize=12;fontColor=default;" vertex="1" parent="AwlXn9MPb9oFoK68vWlI-95">
          <mxGeometry y="34" width="170" height="26" as="geometry" />
        </mxCell>
        <mxCell id="AwlXn9MPb9oFoK68vWlI-99" value="" style="endArrow=open;endFill=1;endSize=12;html=1;rounded=0;fontSize=12;fontColor=default;exitX=0.5;exitY=1;exitDx=0;exitDy=0;entryX=0;entryY=0.5;entryDx=0;entryDy=0;" edge="1" parent="WIyWlLk6GJQsqaUBKTNV-1" source="AwlXn9MPb9oFoK68vWlI-95" target="AwlXn9MPb9oFoK68vWlI-82">
          <mxGeometry width="160" relative="1" as="geometry">
            <mxPoint x="30" y="-190" as="sourcePoint" />
            <mxPoint x="190" y="-190" as="targetPoint" />
          </mxGeometry>
        </mxCell>
        <mxCell id="AwlXn9MPb9oFoK68vWlI-100" value="ArmedFragment" style="swimlane;fontStyle=1;align=center;verticalAlign=top;childLayout=stackLayout;horizontal=1;startSize=26;horizontalStack=0;resizeParent=1;resizeParentMax=0;resizeLast=0;collapsible=1;marginBottom=0;labelBackgroundColor=none;fontSize=12;fontColor=default;" vertex="1" collapsed="1" parent="WIyWlLk6GJQsqaUBKTNV-1">
          <mxGeometry x="620" y="167" width="130" height="26" as="geometry">
            <mxRectangle x="580" y="-310" width="160" height="86" as="alternateBounds" />
          </mxGeometry>
        </mxCell>
        <mxCell id="AwlXn9MPb9oFoK68vWlI-101" value="+ field: type" style="text;strokeColor=none;fillColor=none;align=left;verticalAlign=top;spacingLeft=4;spacingRight=4;overflow=hidden;rotatable=0;points=[[0,0.5],[1,0.5]];portConstraint=eastwest;labelBackgroundColor=none;fontSize=12;fontColor=default;" vertex="1" parent="AwlXn9MPb9oFoK68vWlI-100">
          <mxGeometry y="26" width="130" height="26" as="geometry" />
        </mxCell>
        <mxCell id="AwlXn9MPb9oFoK68vWlI-102" value="" style="line;strokeWidth=1;fillColor=none;align=left;verticalAlign=middle;spacingTop=-1;spacingLeft=3;spacingRight=3;rotatable=0;labelPosition=right;points=[];portConstraint=eastwest;labelBackgroundColor=none;fontSize=12;fontColor=default;" vertex="1" parent="AwlXn9MPb9oFoK68vWlI-100">
          <mxGeometry y="52" width="130" height="8" as="geometry" />
        </mxCell>
        <mxCell id="AwlXn9MPb9oFoK68vWlI-103" value="+ method(type): type" style="text;strokeColor=none;fillColor=none;align=left;verticalAlign=top;spacingLeft=4;spacingRight=4;overflow=hidden;rotatable=0;points=[[0,0.5],[1,0.5]];portConstraint=eastwest;labelBackgroundColor=none;fontSize=12;fontColor=default;" vertex="1" parent="AwlXn9MPb9oFoK68vWlI-100">
          <mxGeometry y="60" width="130" height="26" as="geometry" />
        </mxCell>
        <mxCell id="AwlXn9MPb9oFoK68vWlI-104" value="" style="endArrow=block;dashed=1;endFill=0;endSize=12;html=1;rounded=0;fontSize=12;fontColor=default;exitX=0;exitY=0.5;exitDx=0;exitDy=0;entryX=1;entryY=0.5;entryDx=0;entryDy=0;" edge="1" parent="WIyWlLk6GJQsqaUBKTNV-1" source="AwlXn9MPb9oFoK68vWlI-100" target="AwlXn9MPb9oFoK68vWlI-82">
          <mxGeometry width="160" relative="1" as="geometry">
            <mxPoint x="687" y="10" as="sourcePoint" />
            <mxPoint x="527" y="10" as="targetPoint" />
          </mxGeometry>
        </mxCell>
        <mxCell id="AwlXn9MPb9oFoK68vWlI-105" value="Use" style="endArrow=open;endSize=12;dashed=1;html=1;rounded=0;fontSize=12;fontColor=default;exitX=0;exitY=0.5;exitDx=0;exitDy=0;entryX=1;entryY=0.5;entryDx=0;entryDy=0;" edge="1" parent="WIyWlLk6GJQsqaUBKTNV-1" source="AwlXn9MPb9oFoK68vWlI-95" target="AwlXn9MPb9oFoK68vWlI-21">
          <mxGeometry width="160" relative="1" as="geometry">
            <mxPoint x="160" y="-280" as="sourcePoint" />
            <mxPoint y="-280" as="targetPoint" />
          </mxGeometry>
        </mxCell>
        <mxCell id="AwlXn9MPb9oFoK68vWlI-106" value="&lt;&lt;Interface&gt;&gt;&#xa;TuyaSecurityModeListener" style="swimlane;fontStyle=1;align=center;verticalAlign=top;childLayout=stackLayout;horizontal=1;startSize=40;horizontalStack=0;resizeParent=1;resizeParentMax=0;resizeLast=0;collapsible=1;marginBottom=0;labelBackgroundColor=none;fontSize=12;fontColor=default;" vertex="1" collapsed="1" parent="WIyWlLk6GJQsqaUBKTNV-1">
          <mxGeometry y="160" width="190" height="40" as="geometry">
            <mxRectangle x="-60" y="120" width="500" height="404" as="alternateBounds" />
          </mxGeometry>
        </mxCell>
        <mxCell id="AwlXn9MPb9oFoK68vWlI-109" value="+ homeWillAlarm(delayTime:long)" style="text;strokeColor=none;fillColor=none;align=left;verticalAlign=top;spacingLeft=4;spacingRight=4;overflow=hidden;rotatable=0;points=[[0,0.5],[1,0.5]];portConstraint=eastwest;labelBackgroundColor=none;fontSize=12;fontColor=default;" vertex="1" parent="AwlXn9MPb9oFoK68vWlI-106">
          <mxGeometry y="40" width="190" height="26" as="geometry" />
        </mxCell>
        <mxCell id="AwlXn9MPb9oFoK68vWlI-110" value="+ homeDidAlarm&#xa;" style="text;strokeColor=none;fillColor=none;align=left;verticalAlign=top;spacingLeft=4;spacingRight=4;overflow=hidden;rotatable=0;points=[[0,0.5],[1,0.5]];portConstraint=eastwest;labelBackgroundColor=none;fontSize=12;fontColor=default;" vertex="1" parent="AwlXn9MPb9oFoK68vWlI-106">
          <mxGeometry y="66" width="190" height="26" as="geometry" />
        </mxCell>
        <mxCell id="AwlXn9MPb9oFoK68vWlI-111" value="+ homeDidCancelAlarm" style="text;strokeColor=none;fillColor=none;align=left;verticalAlign=top;spacingLeft=4;spacingRight=4;overflow=hidden;rotatable=0;points=[[0,0.5],[1,0.5]];portConstraint=eastwest;labelBackgroundColor=none;fontSize=12;fontColor=default;" vertex="1" parent="AwlXn9MPb9oFoK68vWlI-106">
          <mxGeometry y="92" width="190" height="26" as="geometry" />
        </mxCell>
        <mxCell id="AwlXn9MPb9oFoK68vWlI-112" value="+ homeDidEnterMode(mode:ModeType,delayTime:long)" style="text;strokeColor=none;fillColor=none;align=left;verticalAlign=top;spacingLeft=4;spacingRight=4;overflow=hidden;rotatable=0;points=[[0,0.5],[1,0.5]];portConstraint=eastwest;labelBackgroundColor=none;fontSize=12;fontColor=default;" vertex="1" parent="AwlXn9MPb9oFoK68vWlI-106">
          <mxGeometry y="118" width="190" height="26" as="geometry" />
        </mxCell>
        <mxCell id="AwlXn9MPb9oFoK68vWlI-113" value="+ operationError(errorType:SDKErrorCode,errorMessage:String)" style="text;strokeColor=none;fillColor=none;align=left;verticalAlign=top;spacingLeft=4;spacingRight=4;overflow=hidden;rotatable=0;points=[[0,0.5],[1,0.5]];portConstraint=eastwest;labelBackgroundColor=none;fontSize=12;fontColor=default;" vertex="1" parent="AwlXn9MPb9oFoK68vWlI-106">
          <mxGeometry y="144" width="190" height="26" as="geometry" />
        </mxCell>
        <mxCell id="AwlXn9MPb9oFoK68vWlI-114" value="+ alarmVoiceDidChanaged(open:bool)" style="text;strokeColor=none;fillColor=none;align=left;verticalAlign=top;spacingLeft=4;spacingRight=4;overflow=hidden;rotatable=0;points=[[0,0.5],[1,0.5]];portConstraint=eastwest;labelBackgroundColor=none;fontSize=12;fontColor=default;" vertex="1" parent="AwlXn9MPb9oFoK68vWlI-106">
          <mxGeometry y="170" width="190" height="26" as="geometry" />
        </mxCell>
        <mxCell id="AwlXn9MPb9oFoK68vWlI-115" value="+ shouldUpdateIrregularDevices" style="text;strokeColor=none;fillColor=none;align=left;verticalAlign=top;spacingLeft=4;spacingRight=4;overflow=hidden;rotatable=0;points=[[0,0.5],[1,0.5]];portConstraint=eastwest;labelBackgroundColor=none;fontSize=12;fontColor=default;" vertex="1" parent="AwlXn9MPb9oFoK68vWlI-106">
          <mxGeometry y="196" width="190" height="26" as="geometry" />
        </mxCell>
        <mxCell id="AwlXn9MPb9oFoK68vWlI-116" value="+ shouldUpdateAbnormalDevices" style="text;strokeColor=none;fillColor=none;align=left;verticalAlign=top;spacingLeft=4;spacingRight=4;overflow=hidden;rotatable=0;points=[[0,0.5],[1,0.5]];portConstraint=eastwest;labelBackgroundColor=none;fontSize=12;fontColor=default;" vertex="1" parent="AwlXn9MPb9oFoK68vWlI-106">
          <mxGeometry y="222" width="190" height="26" as="geometry" />
        </mxCell>
        <mxCell id="AwlXn9MPb9oFoK68vWlI-117" value="+ homeOnlineStateDidChange(online:bool)" style="text;strokeColor=none;fillColor=none;align=left;verticalAlign=top;spacingLeft=4;spacingRight=4;overflow=hidden;rotatable=0;points=[[0,0.5],[1,0.5]];portConstraint=eastwest;labelBackgroundColor=none;fontSize=12;fontColor=default;" vertex="1" parent="AwlXn9MPb9oFoK68vWlI-106">
          <mxGeometry y="248" width="190" height="26" as="geometry" />
        </mxCell>
        <mxCell id="AwlXn9MPb9oFoK68vWlI-118" value="+ shouldUpdateAlarmDetailInfo" style="text;strokeColor=none;fillColor=none;align=left;verticalAlign=top;spacingLeft=4;spacingRight=4;overflow=hidden;rotatable=0;points=[[0,0.5],[1,0.5]];portConstraint=eastwest;labelBackgroundColor=none;fontSize=12;fontColor=default;" vertex="1" parent="AwlXn9MPb9oFoK68vWlI-106">
          <mxGeometry y="274" width="190" height="26" as="geometry" />
        </mxCell>
        <mxCell id="AwlXn9MPb9oFoK68vWlI-119" value="+ hasArmAbility(list:List&lt;String&gt;)" style="text;strokeColor=none;fillColor=none;align=left;verticalAlign=top;spacingLeft=4;spacingRight=4;overflow=hidden;rotatable=0;points=[[0,0.5],[1,0.5]];portConstraint=eastwest;labelBackgroundColor=none;fontSize=12;fontColor=default;" vertex="1" parent="AwlXn9MPb9oFoK68vWlI-106">
          <mxGeometry y="300" width="190" height="26" as="geometry" />
        </mxCell>
        <mxCell id="AwlXn9MPb9oFoK68vWlI-120" value="+ onArmedDeviceResult(mode:ModeType,deviceId:String,success:bool,isFirstUpload:bool)" style="text;strokeColor=none;fillColor=none;align=left;verticalAlign=top;spacingLeft=4;spacingRight=4;overflow=hidden;rotatable=0;points=[[0,0.5],[1,0.5]];portConstraint=eastwest;labelBackgroundColor=none;fontSize=12;fontColor=default;" vertex="1" parent="AwlXn9MPb9oFoK68vWlI-106">
          <mxGeometry y="326" width="190" height="26" as="geometry" />
        </mxCell>
        <mxCell id="AwlXn9MPb9oFoK68vWlI-121" value="+ hasSecurityGatewayOnlineState(gatewayState:int)" style="text;strokeColor=none;fillColor=none;align=left;verticalAlign=top;spacingLeft=4;spacingRight=4;overflow=hidden;rotatable=0;points=[[0,0.5],[1,0.5]];portConstraint=eastwest;labelBackgroundColor=none;fontSize=12;fontColor=default;" vertex="1" parent="AwlXn9MPb9oFoK68vWlI-106">
          <mxGeometry y="352" width="190" height="26" as="geometry" />
        </mxCell>
        <mxCell id="AwlXn9MPb9oFoK68vWlI-122" value="+ homeStateBean(bean:HomeBaseStateBean)" style="text;strokeColor=none;fillColor=none;align=left;verticalAlign=top;spacingLeft=4;spacingRight=4;overflow=hidden;rotatable=0;points=[[0,0.5],[1,0.5]];portConstraint=eastwest;labelBackgroundColor=none;fontSize=12;fontColor=default;" vertex="1" parent="AwlXn9MPb9oFoK68vWlI-106">
          <mxGeometry y="378" width="190" height="26" as="geometry" />
        </mxCell>
        <mxCell id="AwlXn9MPb9oFoK68vWlI-124" value="" style="endArrow=open;endFill=1;endSize=12;html=1;rounded=0;fontSize=12;fontColor=default;exitX=0.5;exitY=1;exitDx=0;exitDy=0;entryX=0.5;entryY=0;entryDx=0;entryDy=0;" edge="1" parent="WIyWlLk6GJQsqaUBKTNV-1" source="AwlXn9MPb9oFoK68vWlI-95" target="AwlXn9MPb9oFoK68vWlI-106">
          <mxGeometry width="160" relative="1" as="geometry">
            <mxPoint x="-60" y="-30" as="sourcePoint" />
            <mxPoint x="100" y="-30" as="targetPoint" />
          </mxGeometry>
        </mxCell>
        <mxCell id="AwlXn9MPb9oFoK68vWlI-129" value="&lt;&lt;Interface&gt;&gt;&#xa;ITuyaSecurity" style="swimlane;fontStyle=1;align=center;verticalAlign=top;childLayout=stackLayout;horizontal=1;startSize=40;horizontalStack=0;resizeParent=1;resizeParentMax=0;resizeLast=0;collapsible=1;marginBottom=0;labelBackgroundColor=none;fontSize=12;fontColor=default;" vertex="1" collapsed="1" parent="WIyWlLk6GJQsqaUBKTNV-1">
          <mxGeometry x="-413" y="160" width="110" height="40" as="geometry">
            <mxRectangle x="-690" y="150" width="540" height="196" as="alternateBounds" />
          </mxGeometry>
        </mxCell>
        <mxCell id="AwlXn9MPb9oFoK68vWlI-132" value="+ registerSecutityModeListener(homeId:long,listener:TuyaSecurityModeListener)" style="text;strokeColor=none;fillColor=none;align=left;verticalAlign=top;spacingLeft=4;spacingRight=4;overflow=hidden;rotatable=0;points=[[0,0.5],[1,0.5]];portConstraint=eastwest;labelBackgroundColor=none;fontSize=12;fontColor=default;" vertex="1" parent="AwlXn9MPb9oFoK68vWlI-129">
          <mxGeometry y="40" width="110" height="26" as="geometry" />
        </mxCell>
        <mxCell id="AwlXn9MPb9oFoK68vWlI-136" value="+ unregisterListener(listener:TuyaSecurityModeListener)" style="text;strokeColor=none;fillColor=none;align=left;verticalAlign=top;spacingLeft=4;spacingRight=4;overflow=hidden;rotatable=0;points=[[0,0.5],[1,0.5]];portConstraint=eastwest;labelBackgroundColor=none;fontSize=12;fontColor=default;" vertex="1" parent="AwlXn9MPb9oFoK68vWlI-129">
          <mxGeometry y="66" width="110" height="26" as="geometry" />
        </mxCell>
        <mxCell id="AwlXn9MPb9oFoK68vWlI-137" value="+ triggerAlarm(homeId:long,alarmType:AlarmType,callback)" style="text;strokeColor=none;fillColor=none;align=left;verticalAlign=top;spacingLeft=4;spacingRight=4;overflow=hidden;rotatable=0;points=[[0,0.5],[1,0.5]];portConstraint=eastwest;labelBackgroundColor=none;fontSize=12;fontColor=default;" vertex="1" parent="AwlXn9MPb9oFoK68vWlI-129">
          <mxGeometry y="92" width="110" height="26" as="geometry" />
        </mxCell>
        <mxCell id="AwlXn9MPb9oFoK68vWlI-138" value="+ getAlarmInfo(homeId:long,callback)" style="text;strokeColor=none;fillColor=none;align=left;verticalAlign=top;spacingLeft=4;spacingRight=4;overflow=hidden;rotatable=0;points=[[0,0.5],[1,0.5]];portConstraint=eastwest;labelBackgroundColor=none;fontSize=12;fontColor=default;" vertex="1" parent="AwlXn9MPb9oFoK68vWlI-129">
          <mxGeometry y="118" width="110" height="26" as="geometry" />
        </mxCell>
        <mxCell id="AwlXn9MPb9oFoK68vWlI-139" value="+ cancelAlarm(homeId:Long,action:CancelAlarmAction,callback)" style="text;strokeColor=none;fillColor=none;align=left;verticalAlign=top;spacingLeft=4;spacingRight=4;overflow=hidden;rotatable=0;points=[[0,0.5],[1,0.5]];portConstraint=eastwest;labelBackgroundColor=none;fontSize=12;fontColor=default;" vertex="1" parent="AwlXn9MPb9oFoK68vWlI-129">
          <mxGeometry y="144" width="110" height="26" as="geometry" />
        </mxCell>
        <mxCell id="AwlXn9MPb9oFoK68vWlI-140" value="..." style="text;strokeColor=none;fillColor=none;align=left;verticalAlign=top;spacingLeft=4;spacingRight=4;overflow=hidden;rotatable=0;points=[[0,0.5],[1,0.5]];portConstraint=eastwest;labelBackgroundColor=none;fontSize=12;fontColor=default;" vertex="1" parent="AwlXn9MPb9oFoK68vWlI-129">
          <mxGeometry y="170" width="110" height="26" as="geometry" />
        </mxCell>
        <mxCell id="AwlXn9MPb9oFoK68vWlI-133" value="armLib-api" style="text;html=1;align=center;verticalAlign=middle;resizable=0;points=[];autosize=1;strokeColor=none;fillColor=none;fontSize=12;fontColor=default;" vertex="1" parent="WIyWlLk6GJQsqaUBKTNV-1">
          <mxGeometry x="-450" y="100" width="70" height="20" as="geometry" />
        </mxCell>
        <mxCell id="AwlXn9MPb9oFoK68vWlI-135" value="" style="endArrow=open;endFill=1;endSize=12;html=1;rounded=0;fontSize=12;fontColor=default;exitX=1;exitY=0.5;exitDx=0;exitDy=0;entryX=0;entryY=0.5;entryDx=0;entryDy=0;" edge="1" parent="WIyWlLk6GJQsqaUBKTNV-1" source="AwlXn9MPb9oFoK68vWlI-129" target="AwlXn9MPb9oFoK68vWlI-106">
          <mxGeometry width="160" relative="1" as="geometry">
            <mxPoint x="-320" y="220" as="sourcePoint" />
            <mxPoint x="-160" y="220" as="targetPoint" />
          </mxGeometry>
        </mxCell>
        <mxCell id="AwlXn9MPb9oFoK68vWlI-142" value="armLib-sdk" style="text;html=1;align=center;verticalAlign=middle;resizable=0;points=[];autosize=1;strokeColor=none;fillColor=none;fontSize=12;fontColor=default;" vertex="1" parent="WIyWlLk6GJQsqaUBKTNV-1">
          <mxGeometry x="-780" y="107" width="70" height="20" as="geometry" />
        </mxCell>
        <mxCell id="AwlXn9MPb9oFoK68vWlI-143" value="" style="endArrow=block;dashed=1;endFill=0;endSize=12;html=1;rounded=0;fontSize=12;fontColor=default;exitX=1;exitY=0.5;exitDx=0;exitDy=0;entryX=0;entryY=0.5;entryDx=0;entryDy=0;" edge="1" parent="WIyWlLk6GJQsqaUBKTNV-1" source="AwlXn9MPb9oFoK68vWlI-144" target="AwlXn9MPb9oFoK68vWlI-129">
          <mxGeometry width="160" relative="1" as="geometry">
            <mxPoint x="-810" y="180" as="sourcePoint" />
            <mxPoint x="-890" y="270" as="targetPoint" />
          </mxGeometry>
        </mxCell>
        <mxCell id="AwlXn9MPb9oFoK68vWlI-144" value="TuyaSecuritySdk" style="swimlane;fontStyle=1;align=center;verticalAlign=top;childLayout=stackLayout;horizontal=1;startSize=26;horizontalStack=0;resizeParent=1;resizeParentMax=0;resizeLast=0;collapsible=1;marginBottom=0;labelBackgroundColor=none;fontSize=12;fontColor=default;" vertex="1" collapsed="1" parent="WIyWlLk6GJQsqaUBKTNV-1">
          <mxGeometry x="-770" y="167" width="130" height="26" as="geometry">
            <mxRectangle x="-1040" y="135" width="160" height="52" as="alternateBounds" />
          </mxGeometry>
        </mxCell>
        <mxCell id="AwlXn9MPb9oFoK68vWlI-147" value="+ method(type): type" style="text;strokeColor=none;fillColor=none;align=left;verticalAlign=top;spacingLeft=4;spacingRight=4;overflow=hidden;rotatable=0;points=[[0,0.5],[1,0.5]];portConstraint=eastwest;labelBackgroundColor=none;fontSize=12;fontColor=default;" vertex="1" parent="AwlXn9MPb9oFoK68vWlI-144">
          <mxGeometry y="26" width="130" height="26" as="geometry" />
        </mxCell>
      </root>
    </mxGraphModel>
  </diagram>
</mxfile>
